<?xml version="1.0"?>
<svg xmlns="http://www.w3.org/2000/svg" xmlns:xlink="http://www.w3.org/1999/xlink" version="1.1" id="Capa_1" x="0px" y="0px" viewBox="0 0 383.989 383.989" style="enable-background:new 0 0 383.989 383.989;" xml:space="preserve" width="512px" height="512px" class=""><g><g>
	<g>
		<path d="M380.869,365.789L18.203,3.123c-4.16-4.16-10.923-4.16-15.083,0c-4.16,4.16-4.16,10.923,0,15.083l362.667,362.667    c2.091,2.069,4.821,3.115,7.552,3.115s5.461-1.045,7.531-3.115C385.029,376.712,385.029,369.949,380.869,365.789z" data-original="#000000" class="active-path" data-old_color="#000000" fill="#FFFFFF"/>
	</g>
</g><g>
	<g>
		<path d="M380.869,3.123c-4.16-4.16-10.923-4.16-15.083,0L3.12,365.789c-4.16,4.16-4.16,10.923,0,15.083    c2.091,2.069,4.821,3.115,7.552,3.115s5.461-1.045,7.531-3.115L380.869,18.205C385.029,14.045,385.029,7.283,380.869,3.123z" data-original="#000000" class="active-path" data-old_color="#000000" fill="#FFFFFF"/>
	</g>
</g></g> </svg>
