<?xml version="1.0"?>
<svg xmlns="http://www.w3.org/2000/svg" height="512px" viewBox="0 0 513 513.04533" width="512px" class=""><g><path d="m154.6875 213.738281h-138.664062c-8.832032 0-16.0000005-7.167969-16.0000005-16v-138.984375c0-8.832031 7.1679685-16 16.0000005-16 8.832031 0 16 7.167969 16 16v122.984375h122.664062c8.832031 0 16 7.167969 16 16s-7.167969 16-16 16zm0 0" data-original="#000000" class="active-path" data-old_color="#000000" fill="#474747"/><path d="m256.023438 513.046875c-68.351563 0-132.628907-26.710937-180.992188-75.179687-6.230469-6.25-6.230469-16.382813.042969-22.636719 6.226562-6.226563 16.40625-6.226563 22.632812.042969 42.304688 42.410156 98.519531 65.773437 158.316407 65.773437 123.519531 0 224-100.738281 224-224.511719 0-123.777344-100.480469-224.535156-224-224.535156-105.855469 0-200.257813 71.316406-224.449219 169.558594-2.132813 8.574218-10.75 13.78125-19.371094 11.710937-8.574219-2.132812-13.800781-10.792969-11.710937-19.371093 27.667968-112.363282 135.144531-193.898438 255.53125-193.898438 141.160156 0 256 115.09375 256 256.511719s-114.839844 256.535156-256 256.535156zm0 0" data-original="#000000" class="active-path" data-old_color="#000000" fill="#474747"/></g> </svg>
